#define arrow_width 16
#define arrow_height 16
#define arrow_x_hot 8
#define arrow_y_hot 8
static unsigned char arrow_bits[] = {
   0x00, 0x00, 0x00, 0x00, 0x00, 0x08, 0x00, 0x0c, 0x00, 0x0e, 0x00, 0x0f,
   0x80, 0x0f, 0x38, 0x00, 0xfc, 0x3f, 0xf8, 0x1f, 0x70, 0x00, 0x00, 0x07,
   0x00, 0x06, 0x00, 0x04, 0x00, 0x00, 0x00, 0x00 };
