#define bomber_width 16
#define bomber_height 16
#define bomber_x_hot 8
#define bomber_y_hot 8
static unsigned char bomber_bits[] = {
 0x00, 0x00, 0x00, 0x00, 0x00, 0x02, 0x10, 0x02, 0x18, 0x02, 0x08, 0x07,
 0xEC, 0x3F, 0xEC, 0x3F, 0xEC, 0x3F, 0xEC, 0x3F, 0x08, 0x07, 0x18, 0x02,
 0x10, 0x02, 0x00, 0x02, 0x00, 0x00, 0x00, 0x00 };
