#define boomer_width 16
#define boomer_height 16
#define boomer_x_hot 8
#define boomer_y_hot 8
static unsigned char boomer_bits[] = {
 0xC0, 0x00, 0xF0, 0x18, 0xF8, 0x7E, 0xEC, 0x7E, 0xF6, 0x18, 0x7E, 0x18,
 0x7F, 0xFF, 0x7F, 0xFF, 0x7F, 0xFF, 0x7F, 0xFF, 0x7E, 0x18, 0xFE, 0x18,
 0xFC, 0x7E, 0xF8, 0x7E, 0xF0, 0x18, 0xC0, 0x00 };
