#define dreadstar_width 16
#define dreadstar_height 16
#define dreadstar_x_hot 8
#define dreadstar_y_hot 8
static unsigned char dreadstar_bits[] = {
 0x00, 0x00, 0x02, 0x04, 0x64, 0x02, 0xF8, 0xC1, 0x6C, 0x73, 0xFE, 0x77,
 0xF6, 0xC5, 0x63, 0x0F, 0xE3, 0x0F, 0xB6, 0xC6, 0xFE, 0x77, 0x6C, 0x73,
 0xF8, 0xC1, 0x64, 0x02, 0x02, 0x04, 0x00, 0x00 };
