#define flitter_width 16
#define flitter_height 16
#define flitter_x_hot 8
#define flitter_y_hot 8
static unsigned char flitter_bits[] = {
 0x00, 0x00, 0x00, 0x00, 0x00, 0x20, 0x80, 0x30, 0xC0, 0x38, 0x00, 0x00,
 0xF8, 0x1F, 0x0C, 0x30, 0x0C, 0x30, 0xF8, 0x1F, 0x00, 0x00, 0xC0, 0x38,
 0x80, 0x30, 0x00, 0x20, 0x00, 0x00, 0x00, 0x00 };
