#define hopper_width 16
#define hopper_height 16
#define hopper_x_hot 8
#define hopper_y_hot 8
static unsigned char hopper_bits[] = {
 0x00, 0x00, 0x90, 0x24, 0x90, 0x24, 0x20, 0x13, 0x40, 0x08, 0x00, 0x03,
 0xBC, 0x07, 0xC0, 0x0C, 0xC0, 0x0C, 0xBC, 0x07, 0x00, 0x03, 0x40, 0x08,
 0x20, 0x13, 0x90, 0x24, 0x90, 0x24, 0x00, 0x00 };
