#define player_width 16
#define player_height 16
#define player_x_hot 8
#define player_y_hot 8
static unsigned char player_bits[] = {
   0x00, 0x00, 0x00, 0x00, 0xf8, 0x00, 0x00, 0x01, 0x80, 0x1f, 0xc0, 0x30,
   0x7e, 0x60, 0x40, 0x20, 0x40, 0x20, 0x7e, 0x60, 0xc0, 0x30, 0x80, 0x1f,
   0x00, 0x01, 0xf8, 0x00, 0x00, 0x00, 0x00, 0x00 };
