#define powerup_gun_width 16
#define powerup_gun_height 16
#define powerup_gun_x_hot 8
#define powerup_gun_y_hot 8
static unsigned char powerup_gun_bits[] = {
   0x00, 0x00, 0x00, 0x00, 0xc0, 0x03, 0x30, 0x0c, 0x08, 0x10, 0x28, 0x10,
   0x64, 0x25, 0x24, 0x20, 0x24, 0x20, 0x64, 0x25, 0x28, 0x10, 0x08, 0x10,
   0x30, 0x0c, 0xc0, 0x03, 0x00, 0x00, 0x00, 0x00 };
