#define powerup_shield_width 16
#define powerup_shield_height 16
#define powerup_shield_x_hot 8
#define powerup_shield_y_hot 8
static unsigned char powerup_shield_bits[] = {
   0x00, 0x00, 0x00, 0x00, 0xc0, 0x03, 0x30, 0x0c, 0x08, 0x10, 0xc8, 0x13,
   0x24, 0x24, 0x24, 0x24, 0x24, 0x24, 0x24, 0x24, 0xc8, 0x13, 0x08, 0x10,
   0x30, 0x0c, 0xc0, 0x03, 0x00, 0x00, 0x00, 0x00 };
