#define powerup_life_width 16
#define powerup_life_height 16
#define powerup_life_x_hot 8
#define powerup_life_y_hot 8
static unsigned char powerup_life_bits[] = {
   0x00, 0x00, 0x00, 0x00, 0xc0, 0x03, 0x30, 0x0c, 0x08, 0x10, 0x88, 0x11,
   0x84, 0x21, 0xe4, 0x27, 0xe4, 0x27, 0x84, 0x21, 0x88, 0x11, 0x08, 0x10,
   0x30, 0x0c, 0xc0, 0x03, 0x00, 0x00, 0x00, 0x00 };
