#define powerup_blast_width 16
#define powerup_blast_height 16
#define powerup_blast_x_hot 8
#define powerup_blast_y_hot 8
static unsigned char powerup_blast_bits[] = {
   0x00, 0x00, 0x00, 0x00, 0xc0, 0x03, 0x30, 0x0c, 0x88, 0x10, 0xa8, 0x14,
   0x44, 0x22, 0x04, 0x2c, 0x34, 0x20, 0x44, 0x22, 0x28, 0x15, 0x08, 0x11,
   0x30, 0x0c, 0xc0, 0x03, 0x00, 0x00, 0x00, 0x00 };
