#define stinger_width 16
#define stinger_height 16
#define stinger_x_hot 8
#define stinger_y_hot 8
static unsigned char stinger_bits[] = {
 0x00, 0x00, 0x00, 0x00, 0x00, 0x08, 0x00, 0x3C, 0x70, 0x08, 0x80, 0x31,
 0xDC, 0x3B, 0x60, 0x1E, 0x60, 0x1E, 0xDC, 0x3B, 0x80, 0x31, 0x70, 0x08,
 0x00, 0x3C, 0x00, 0x08, 0x00, 0x00, 0x00, 0x00 };
